<svg width="28" height="29" viewBox="0 0 28 29" fill="none" xmlns="http://www.w3.org/2000/svg">
<path d="M20.4867 24.7473C20.3001 24.7481 20.1161 24.7041 19.95 24.619L14 21.504L8.05003 24.619C7.85682 24.7206 7.63898 24.7659 7.42128 24.7499C7.20358 24.7339 6.99475 24.657 6.81853 24.5282C6.6423 24.3994 6.50576 24.2237 6.42441 24.0211C6.34306 23.8186 6.32018 23.5973 6.35836 23.3823L7.52503 16.814L2.71836 12.1473C2.5684 11.9977 2.46201 11.81 2.41063 11.6045C2.35924 11.3989 2.3648 11.1833 2.42669 10.9807C2.49431 10.7733 2.6187 10.5891 2.78574 10.4488C2.95277 10.3086 3.15577 10.218 3.3717 10.1873L10.0217 9.21899L12.95 3.234C13.0456 3.03675 13.1947 2.87039 13.3804 2.754C13.5661 2.6376 13.7809 2.57587 14 2.57587C14.2192 2.57587 14.4339 2.6376 14.6196 2.754C14.8053 2.87039 14.9545 3.03675 15.05 3.234L18.0134 9.20733L24.6634 10.1757C24.8793 10.2064 25.0823 10.297 25.2493 10.4372C25.4164 10.5774 25.5407 10.7616 25.6084 10.969C25.6703 11.1716 25.6758 11.3873 25.6244 11.5928C25.573 11.7983 25.4667 11.986 25.3167 12.1357L20.51 16.8023L21.6767 23.3707C21.7183 23.5894 21.6965 23.8155 21.6138 24.0222C21.5312 24.2289 21.391 24.4077 21.21 24.5373C20.9988 24.6854 20.7444 24.7592 20.4867 24.7473ZM14 19.0307C14.187 19.0259 14.372 19.0702 14.5367 19.159L18.935 21.4923L18.095 16.5807C18.0624 16.3931 18.0762 16.2005 18.1352 16.0195C18.1942 15.8385 18.2965 15.6747 18.4334 15.5423L21.9334 12.124L17.0334 11.4007C16.8537 11.3645 16.685 11.2865 16.5411 11.173C16.3972 11.0595 16.2821 10.9136 16.205 10.7473L14 6.37233L11.795 10.7473C11.7106 10.915 11.587 11.0598 11.4347 11.1695C11.2823 11.2792 11.1058 11.3505 10.92 11.3773L6.02003 12.1007L9.52003 15.519C9.65685 15.6513 9.75921 15.8151 9.81819 15.9961C9.87716 16.1771 9.89095 16.3698 9.85836 16.5573L9.01836 21.4107L13.4167 19.0773C13.6031 19.008 13.805 18.9919 14 19.0307Z" fill="#25546F"/>
</svg>
