<svg width="28" height="29" viewBox="0 0 28 29" fill="none" xmlns="http://www.w3.org/2000/svg">
<path d="M21 17.6954C20.0835 17.6962 19.2038 18.0564 18.55 18.6988L9.33333 14.5921V13.8104L18.55 9.6921C19.1273 10.258 19.8826 10.6065 20.6878 10.6786C21.4929 10.7508 22.2982 10.5419 22.9669 10.0877C23.6355 9.63341 24.1263 8.9617 24.3559 8.18662C24.5855 7.41155 24.5397 6.5809 24.2263 5.83575C23.9129 5.0906 23.3513 4.4769 22.6367 4.09888C21.9222 3.72086 21.0989 3.60182 20.3065 3.76199C19.5142 3.92216 18.8017 4.35165 18.2901 4.97753C17.7785 5.6034 17.4993 6.38707 17.5 7.19544V7.5921L8.28333 11.6988C7.79142 11.2155 7.1677 10.8883 6.49047 10.7582C5.81325 10.6282 5.1127 10.7011 4.47677 10.9678C3.84083 11.2345 3.29786 11.6832 2.91601 12.2574C2.53416 12.8316 2.33044 13.5058 2.33044 14.1954C2.33044 14.885 2.53416 15.5593 2.91601 16.1335C3.29786 16.7077 3.84083 17.1563 4.47677 17.4231C5.1127 17.6898 5.81325 17.7627 6.49047 17.6326C7.1677 17.5026 7.79142 17.1754 8.28333 16.6921L17.5 20.8104V21.1954C17.5 21.8877 17.7053 22.5644 18.0899 23.1399C18.4744 23.7155 19.0211 24.1641 19.6606 24.429C20.3001 24.6939 21.0039 24.7632 21.6828 24.6282C22.3617 24.4931 22.9854 24.1598 23.4749 23.6703C23.9644 23.1808 24.2977 22.5572 24.4327 21.8783C24.5678 21.1993 24.4985 20.4956 24.2336 19.856C23.9687 19.2165 23.5201 18.6699 22.9445 18.2853C22.3689 17.9007 21.6922 17.6954 21 17.6954ZM21 6.02877C21.2307 6.02877 21.4563 6.09719 21.6482 6.22539C21.84 6.35358 21.9896 6.53579 22.0779 6.74897C22.1662 6.96215 22.1893 7.19673 22.1442 7.42304C22.0992 7.64935 21.9881 7.85723 21.825 8.02039C21.6618 8.18356 21.4539 8.29467 21.2276 8.33969C21.0013 8.3847 20.7667 8.3616 20.5535 8.2733C20.3404 8.18499 20.1581 8.03546 20.0299 7.8436C19.9018 7.65174 19.8333 7.42618 19.8333 7.19544C19.8333 6.88602 19.9562 6.58927 20.175 6.37048C20.3938 6.15169 20.6906 6.02877 21 6.02877ZM5.83333 15.3621C5.60259 15.3621 5.37702 15.2937 5.18517 15.1655C4.99331 15.0373 4.84377 14.8551 4.75547 14.6419C4.66717 14.4287 4.64407 14.1941 4.68908 13.9678C4.7341 13.7415 4.84521 13.5336 5.00837 13.3705C5.17154 13.2073 5.37942 13.0962 5.60573 13.0512C5.83204 13.0062 6.06661 13.0293 6.2798 13.1176C6.49298 13.2059 6.67518 13.3554 6.80338 13.5473C6.93157 13.7391 7 13.9647 7 14.1954C7 14.5049 6.87708 14.8016 6.65829 15.0204C6.4395 15.2392 6.14275 15.3621 5.83333 15.3621ZM21 22.3621C20.7693 22.3621 20.5437 22.2937 20.3518 22.1655C20.16 22.0373 20.0104 21.8551 19.9221 21.6419C19.8338 21.4287 19.8107 21.1941 19.8557 20.9678C19.9008 20.7415 20.0119 20.5336 20.175 20.3705C20.3382 20.2073 20.5461 20.0962 20.7724 20.0512C20.9987 20.0062 21.2333 20.0293 21.4465 20.1176C21.6596 20.2059 21.8419 20.3554 21.97 20.5473C22.0982 20.7391 22.1667 20.9647 22.1667 21.1954C22.1667 21.5049 22.0438 21.8016 21.825 22.0204C21.6062 22.2392 21.3094 22.3621 21 22.3621Z" fill="#25546F"/>
</svg>
