<svg width="28" height="29" viewBox="0 0 28 29" fill="none" xmlns="http://www.w3.org/2000/svg">
<path d="M17.5 18.9659H10.5C10.1906 18.9659 9.89388 19.0888 9.67508 19.3076C9.45629 19.5264 9.33337 19.8232 9.33337 20.1326C9.33337 20.442 9.45629 20.7388 9.67508 20.9575C9.89388 21.1763 10.1906 21.2993 10.5 21.2993H17.5C17.8095 21.2993 18.1062 21.1763 18.325 20.9575C18.5438 20.7388 18.6667 20.442 18.6667 20.1326C18.6667 19.8232 18.5438 19.5264 18.325 19.3076C18.1062 19.0888 17.8095 18.9659 17.5 18.9659ZM10.5 16.6326H14C14.3095 16.6326 14.6062 16.5097 14.825 16.2909C15.0438 16.0721 15.1667 15.7753 15.1667 15.4659C15.1667 15.1565 15.0438 14.8598 14.825 14.641C14.6062 14.4222 14.3095 14.2993 14 14.2993H10.5C10.1906 14.2993 9.89388 14.4222 9.67508 14.641C9.45629 14.8598 9.33337 15.1565 9.33337 15.4659C9.33337 15.7753 9.45629 16.0721 9.67508 16.2909C9.89388 16.5097 10.1906 16.6326 10.5 16.6326Z" fill="#25546F"/>
<path d="M23.03 10.0176L16.6834 3.0176C16.5743 2.89674 16.4411 2.80005 16.2924 2.73374C16.1437 2.66743 15.9828 2.63298 15.82 2.6326H7.65335C7.26573 2.62797 6.88099 2.69975 6.5211 2.84383C6.16122 2.98791 5.83324 3.20147 5.5559 3.47231C5.27856 3.74315 5.05728 4.06597 4.90471 4.42234C4.75214 4.77871 4.67126 5.16164 4.66669 5.54926V23.0493C4.67126 23.4369 4.75214 23.8198 4.90471 24.1762C5.05728 24.5325 5.27856 24.8554 5.5559 25.1262C5.83324 25.3971 6.16122 25.6106 6.5211 25.7547C6.88099 25.8988 7.26573 25.9706 7.65335 25.9659H20.3467C20.7343 25.9706 21.1191 25.8988 21.4789 25.7547C21.8388 25.6106 22.1668 25.3971 22.4441 25.1262C22.7215 24.8554 22.9428 24.5325 23.0953 24.1762C23.2479 23.8198 23.3288 23.4369 23.3334 23.0493V10.7993C23.3326 10.5101 23.2245 10.2316 23.03 10.0176ZM16.3334 6.1326L19.53 9.63259H17.1967C17.0745 9.62522 16.955 9.59358 16.8452 9.53953C16.7354 9.48548 16.6375 9.4101 16.5571 9.31779C16.4767 9.22547 16.4155 9.11808 16.3771 9.00186C16.3387 8.88565 16.3238 8.76295 16.3334 8.64093V6.1326ZM20.3467 23.6326H7.65335C7.57212 23.6373 7.49076 23.626 7.41392 23.5992C7.33709 23.5724 7.2663 23.5307 7.2056 23.4765C7.14491 23.4224 7.0955 23.3567 7.06023 23.2834C7.02495 23.2101 7.00449 23.1305 7.00002 23.0493V5.54926C7.00449 5.46802 7.02495 5.38845 7.06023 5.31513C7.0955 5.24181 7.14491 5.17617 7.2056 5.12198C7.2663 5.06779 7.33709 5.02611 7.41392 4.99933C7.49076 4.97255 7.57212 4.9612 7.65335 4.96593H14V8.64093C13.9812 9.50032 14.3031 10.3323 14.8954 10.9552C15.4877 11.5781 16.3024 11.9415 17.1617 11.9659H21V23.0493C20.9956 23.1305 20.9751 23.2101 20.9398 23.2834C20.9045 23.3567 20.8551 23.4224 20.7944 23.4765C20.7337 23.5307 20.663 23.5724 20.5861 23.5992C20.5093 23.626 20.4279 23.6373 20.3467 23.6326Z" fill="#25546F"/>
</svg>
