<svg width="28" height="29" viewBox="0 0 28 29" fill="none" xmlns="http://www.w3.org/2000/svg">
<path d="M11.6666 16.6846H16.3333V24.8513H11.6666V16.6846Z" fill="white"/>
<path d="M23.8233 12.2279L14.8283 3.03461C14.7199 2.92526 14.5909 2.83847 14.4487 2.77924C14.3065 2.72001 14.154 2.68951 14 2.68951C13.846 2.68951 13.6935 2.72001 13.5513 2.77924C13.4092 2.83847 13.2801 2.92526 13.1717 3.03461L4.17668 12.2396C3.95902 12.459 3.78712 12.7195 3.67096 13.0059C3.5548 13.2923 3.49669 13.5989 3.50001 13.9079V23.6846C3.49911 24.2818 3.72725 24.8567 4.13745 25.2908C4.54765 25.7248 5.10868 25.9851 5.70501 26.0179H9.33335V15.5179C9.33335 15.2085 9.45626 14.9118 9.67506 14.693C9.89385 14.4742 10.1906 14.3513 10.5 14.3513H17.5C17.8094 14.3513 18.1062 14.4742 18.325 14.693C18.5438 14.9118 18.6667 15.2085 18.6667 15.5179V26.0179H22.295C22.8913 25.9851 23.4524 25.7248 23.8626 25.2908C24.2728 24.8567 24.5009 24.2818 24.5 23.6846V13.9079C24.5009 13.2814 24.2583 12.679 23.8233 12.2279Z" fill="white"/>
</svg>
