<svg width="28" height="29" viewBox="0 0 28 29" fill="none" xmlns="http://www.w3.org/2000/svg">
<path d="M24.5 7.14349H18.6666V5.19516C18.6393 4.44828 18.3169 3.74273 17.7701 3.23317C17.2234 2.72361 16.4969 2.45162 15.75 2.47683H12.25C11.503 2.45162 10.7766 2.72361 10.2298 3.23317C9.68307 3.74273 9.36068 4.44828 9.33331 5.19516V7.14349H3.49998C3.19056 7.14349 2.89381 7.26641 2.67502 7.4852C2.45623 7.704 2.33331 8.00074 2.33331 8.31016C2.33331 8.61958 2.45623 8.91633 2.67502 9.13512C2.89381 9.35391 3.19056 9.47683 3.49998 9.47683H4.66665V22.3102C4.66665 23.2384 5.0354 24.1287 5.69177 24.785C6.34815 25.4414 7.23839 25.8102 8.16665 25.8102H19.8333C20.7616 25.8102 21.6518 25.4414 22.3082 24.785C22.9646 24.1287 23.3333 23.2384 23.3333 22.3102V9.47683H24.5C24.8094 9.47683 25.1061 9.35391 25.3249 9.13512C25.5437 8.91633 25.6666 8.61958 25.6666 8.31016C25.6666 8.00074 25.5437 7.704 25.3249 7.4852C25.1061 7.26641 24.8094 7.14349 24.5 7.14349ZM11.6666 5.19516C11.6666 5.00849 11.9116 4.81016 12.25 4.81016H15.75C16.0883 4.81016 16.3333 5.00849 16.3333 5.19516V7.14349H11.6666V5.19516ZM21 22.3102C21 22.6196 20.8771 22.9163 20.6583 23.1351C20.4395 23.3539 20.1427 23.4768 19.8333 23.4768H8.16665C7.85723 23.4768 7.56048 23.3539 7.34169 23.1351C7.1229 22.9163 6.99998 22.6196 6.99998 22.3102V9.47683H21V22.3102Z" fill="#25546F"/>
<path d="M10.5 19.9768C10.8094 19.9768 11.1061 19.8539 11.3249 19.6351C11.5437 19.4163 11.6666 19.1196 11.6666 18.8102V14.1435C11.6666 13.8341 11.5437 13.5373 11.3249 13.3185C11.1061 13.0998 10.8094 12.9768 10.5 12.9768C10.1906 12.9768 9.89381 13.0998 9.67502 13.3185C9.45623 13.5373 9.33331 13.8341 9.33331 14.1435V18.8102C9.33331 19.1196 9.45623 19.4163 9.67502 19.6351C9.89381 19.8539 10.1906 19.9768 10.5 19.9768ZM17.5 19.9768C17.8094 19.9768 18.1061 19.8539 18.3249 19.6351C18.5437 19.4163 18.6666 19.1196 18.6666 18.8102V14.1435C18.6666 13.8341 18.5437 13.5373 18.3249 13.3185C18.1061 13.0998 17.8094 12.9768 17.5 12.9768C17.1906 12.9768 16.8938 13.0998 16.675 13.3185C16.4562 13.5373 16.3333 13.8341 16.3333 14.1435V18.8102C16.3333 19.1196 16.4562 19.4163 16.675 19.6351C16.8938 19.8539 17.1906 19.9768 17.5 19.9768Z" fill="#25546F"/>
</svg>
